<svg xmlns="http://www.w3.org/2000/svg" viewBox="0 0 60 42" fill="#4D6BFE">
  <path d="M55.61 3.47c-.6-.29-.85.27-1.2.55-.12.09-.22.21-.32.32-.87.93-1.89 1.54-3.21 1.47-1.95-.11-3.6.5-5.07 1.99-.3-1.83-1.34-2.93-2.92-3.63-.82-.36-1.66-.73-2.23-1.52-.4-.57-.51-1.2-.72-1.82-.12-.37-.25-.75-.68-.82-.47-.07-.65.32-.84.65-.73 1.34-1.01 2.81-.99 4.31.07 3.36 1.49 6.04 4.31 7.94.32.22.4.44.3.76-.19.66-.42 1.3-.62 1.95-.13.42-.32.51-.77.33-1.55-.65-2.89-1.6-4.07-2.76-2.01-1.94-3.82-4.08-6.08-5.76-.54-.39-1.07-.75-1.62-1.1-2.3-2.24.32-4.08.93-4.3.63-.23.22-1.01-1.82-1-2.05.01-3.91.69-6.29 1.6-.35.14-.72.24-1.1.32-2.16-.41-4.4-.5-6.75-.24-4.41.5-7.94 2.58-10.53 6.14-3.12 4.28-3.85 9.15-2.95 14.22.94 5.35 3.67 9.78 7.87 13.24 4.35 3.59 9.36 5.35 15.07 5.01 3.47-.2 7.34-.66 11.7-4.35 1.1.55 2.25.77 4.17.93 1.47.14 2.89-.07 3.99-.3 1.72-.37 1.6-1.96.98-2.25-5.05-2.35-3.94-1.4-4.95-2.17 2.57-3.03 6.43-6.19 7.94-16.4.12-.81.02-1.32 0-1.98-.01-.4.08-.56.54-.6 1.26-.15 2.49-.5 3.62-1.12 3.27-1.78 4.59-4.72 4.9-8.23.05-.54 0-1.1-.57-1.38zM27.12 35.12c-4.9-3.85-7.27-5.11-8.25-5.06-.92.05-.75 1.1-.55 1.79.21.67.49 1.14.87 1.73.27.39.45.98-.26 1.41-1.58.98-4.32-.33-4.45-.4-3.18-1.87-5.85-4.35-7.73-7.74-1.81-3.26-2.86-6.76-3.04-10.5-.04-.9.22-1.22 1.12-1.38 1.18-.22 2.4-.27 3.58-.1 4.99.73 9.24 2.97 12.8 6.5 2.04 2.01 3.57 4.42 5.16 6.77 1.68 2.5 3.5 4.87 5.8 6.82.82.69 1.47 1.2 2.1 1.59-1.88.21-5.01.25-7.16-1.44zm2.34-15.07a.68.68 0 0 1 .72-.65c.2.01.38.08.52.21.13.13.2.3.2.49 0 .4-.3.72-.67.72a.69.69 0 0 1-.52-.22.67.67 0 0 1-.2-.49zm7.29 3.74c-.47.19-.94.35-1.39.37-.46.02-.92-.08-1.27-.34-.47-.37-.6-.5-.7-1.12-.07-.4 0-.79.14-1.17.1-.23.09-.33-.1-.47-.32-.27-.72-.19-1.1-.19a.6.6 0 0 1-.39-.13.26.26 0 0 1 .08-.47c.23-.08.49-.1.72-.05.36.06.62.18.94.29.34.12.6.35.98.72.32.31.58.63.81 1.01.17.28-.02.47-.42.55z" fill="#4D6BFE"/>
</svg>
