<svg width="32" height="32" viewBox="0 0 24 24" fill="none" xmlns="http://www.w3.org/2000/svg">
<path d="M12.604 1.34c.393.69.784 1.382 1.174 2.075a.18.18 0 00.157.091h5.552c.174 0 .322.11.446.327l1.454 2.57c.19.337.24.478.024.837-.26.43-.513.864-.76 1.3l-.367.658c-.106.196-.223.28-.04.512l2.652 4.637c.172.301.111.494-.043.77-.437.785-.882 1.564-1.335 2.34-.159.272-.352.375-.68.37-.777-.016-1.552-.01-2.327.016a.099.099 0 00-.081.05 575.097 575.097 0 01-2.705 4.74c-.169.293-.38.363-.725.364-.997.003-2.002.004-3.017.002a.537.537 0 01-.465-.271l-1.335-2.323a.09.09 0 00-.083-.049H4.982c-.285.03-.553-.001-.805-.092l-1.603-2.77a.543.543 0 01-.002-.54l1.207-2.12a.198.198 0 000-.197 550.951 550.951 0 01-1.875-3.272l-.79-1.395c-.16-.31-.173-.496.095-.965.465-.813.927-1.625 1.387-2.436.132-.234.304-.334.584-.335a338.3 338.3 0 012.589-.001.124.124 0 00.107-.063l2.806-4.895a.488.488 0 01.422-.246c.524-.001 1.053 0 1.583-.006L11.704 1c.341-.003.724.032.9.34z" fill="url(#qg)"/>
<defs>
<linearGradient id="qg" x1="0%" y1="0%" x2="100%" y2="100%">
<stop offset="0%" stop-color="#6336E7"/>
<stop offset="100%" stop-color="#6F69F7"/>
</linearGradient>
</defs>
</svg>
